<svg xmlns="http://www.w3.org/2000/svg" viewBox="0 0 500 500">
  <!-- Background -->
  <rect x="0" y="0" width="500" height="500" rx="110" fill="#075E54"/>

  <!-- Stack 1 — short (2 coins) -->
  <ellipse cx="155" cy="320" rx="48" ry="13" fill="#c8960c"/>
  <rect x="107" y="290" width="96" height="30" fill="#f5c842"/>
  <ellipse cx="155" cy="290" rx="48" ry="13" fill="#ffe066"/>

  <ellipse cx="155" cy="350" rx="48" ry="13" fill="#c8960c"/>
  <rect x="107" y="320" width="96" height="30" fill="#f5c842"/>
  <ellipse cx="155" cy="320" rx="48" ry="13" fill="#ffe066"/>

  <!-- Stack 2 — medium (4 coins) -->
  <ellipse cx="250" cy="260" rx="48" ry="13" fill="#c8960c"/>
  <rect x="202" y="230" width="96" height="30" fill="#f5c842"/>
  <ellipse cx="250" cy="230" rx="48" ry="13" fill="#ffe066"/>

  <ellipse cx="250" cy="290" rx="48" ry="13" fill="#c8960c"/>
  <rect x="202" y="260" width="96" height="30" fill="#f5c842"/>
  <ellipse cx="250" cy="260" rx="48" ry="13" fill="#ffe066"/>

  <ellipse cx="250" cy="320" rx="48" ry="13" fill="#c8960c"/>
  <rect x="202" y="290" width="96" height="30" fill="#f5c842"/>
  <ellipse cx="250" cy="290" rx="48" ry="13" fill="#ffe066"/>

  <ellipse cx="250" cy="350" rx="48" ry="13" fill="#c8960c"/>
  <rect x="202" y="320" width="96" height="30" fill="#f5c842"/>
  <ellipse cx="250" cy="320" rx="48" ry="13" fill="#ffe066"/>

  <!-- Stack 3 — tall (6 coins) -->
  <ellipse cx="345" cy="200" rx="48" ry="13" fill="#c8960c"/>
  <rect x="297" y="170" width="96" height="30" fill="#f5c842"/>
  <ellipse cx="345" cy="170" rx="48" ry="13" fill="#ffe066"/>

  <ellipse cx="345" cy="230" rx="48" ry="13" fill="#c8960c"/>
  <rect x="297" y="200" width="96" height="30" fill="#f5c842"/>
  <ellipse cx="345" cy="200" rx="48" ry="13" fill="#ffe066"/>

  <ellipse cx="345" cy="260" rx="48" ry="13" fill="#c8960c"/>
  <rect x="297" y="230" width="96" height="30" fill="#f5c842"/>
  <ellipse cx="345" cy="230" rx="48" ry="13" fill="#ffe066"/>

  <ellipse cx="345" cy="290" rx="48" ry="13" fill="#c8960c"/>
  <rect x="297" y="260" width="96" height="30" fill="#f5c842"/>
  <ellipse cx="345" cy="260" rx="48" ry="13" fill="#ffe066"/>

  <ellipse cx="345" cy="320" rx="48" ry="13" fill="#c8960c"/>
  <rect x="297" y="290" width="96" height="30" fill="#f5c842"/>
  <ellipse cx="345" cy="290" rx="48" ry="13" fill="#ffe066"/>

  <ellipse cx="345" cy="350" rx="48" ry="13" fill="#c8960c"/>
  <rect x="297" y="320" width="96" height="30" fill="#f5c842"/>
  <ellipse cx="345" cy="320" rx="48" ry="13" fill="#ffe066"/>

  <!-- Base line -->
  <rect x="107" y="350" width="286" height="8" rx="4" fill="rgba(255,255,255,0.25)"/>

  <!-- Teal dot -->
  <circle cx="345" cy="150" r="22" fill="#5fafc6"/>
</svg>
